<svg width="100" height="100" viewBox="0 0 100 100" fill="none" xmlns="http://www.w3.org/2000/svg">
<path d="M10.3022 64.876L10.3022 64.876C10.1654 64.9118 9.9432 64.9066 9.60175 64.7144C9.25447 64.5188 8.84694 64.1611 8.41901 63.6189C7.56517 62.5371 6.75116 60.8747 6.23024 58.8848C5.70931 56.895 5.60431 55.047 5.81855 53.6856C5.92592 53.0033 6.10586 52.4917 6.31277 52.1511C6.51621 51.8162 6.70737 51.7028 6.84413 51.6669C6.84413 51.6669 6.84413 51.6669 6.84413 51.6669L11.4028 50.4735L14.8608 63.6826L10.3022 64.876ZM10.5554 65.8434L10.5446 65.8021L10.5554 65.8434Z" stroke="white" stroke-width="2"/>
<path d="M86.8232 58.572C86.4266 58.572 86.0272 58.4457 85.6887 58.1852C84.8741 57.5579 84.7222 56.3889 85.3494 55.5742C89.5251 50.1517 90.8155 43.0158 88.8011 36.4859C86.7864 29.956 81.7002 24.7873 75.1956 22.6598C74.2183 22.3402 73.6851 21.2889 74.0049 20.3116C74.3246 19.3342 75.377 18.8016 76.353 19.1208C84.0051 21.6236 89.9886 27.7049 92.3591 35.3883C94.7293 43.0716 93.2119 51.467 88.2997 57.846C88.1258 58.0722 87.9022 58.2553 87.6461 58.3812C87.3901 58.5071 87.1085 58.5724 86.8232 58.572V58.572ZM81.5012 56.0875C85.5199 50.8683 86.7617 43.9995 84.8223 37.7134C82.883 31.4271 77.9874 26.4516 71.7269 24.4037C70.7492 24.0845 69.6984 24.6173 69.3787 25.5945C69.0591 26.5718 69.5922 27.623 70.5692 27.9427C75.6827 29.6153 79.6808 33.6781 81.2645 38.811C82.8479 43.9436 81.8336 49.553 78.5511 53.8157C77.9239 54.6304 78.0758 55.7994 78.8904 56.4267C79.2153 56.6777 79.6143 56.8137 80.0248 56.8134C80.5826 56.8134 81.1345 56.5636 81.5012 56.0875V56.0875ZM74.6417 52.9992C77.4549 49.3461 78.3238 44.5377 76.9664 40.1369C75.6087 35.7362 72.1818 32.2531 67.7994 30.8198C66.8232 30.5007 65.7711 31.0332 65.4514 32.0105C65.1318 32.9878 65.6649 34.0392 66.6421 34.3588C69.8772 35.417 72.4068 37.9872 73.4086 41.2345C74.4102 44.4818 73.7684 48.0307 71.6916 50.7275C71.0644 51.5421 71.2161 52.7112 72.0308 53.3384C72.3558 53.5894 72.7548 53.7254 73.1653 53.7251C73.4506 53.7255 73.7322 53.6602 73.9882 53.5343C74.2442 53.4084 74.4678 53.2253 74.6417 52.9992V52.9992Z" fill="white"/>
<path d="M51.9697 26.1122L51.9698 26.1122C52.9175 25.8641 54.0107 26.043 55.2329 26.7312C56.4609 27.4226 57.7589 28.5986 59.0365 30.2173C61.5899 33.4522 63.9407 38.3015 65.433 44.0017C66.9253 49.7018 67.2522 55.081 66.6115 59.1521C66.2909 61.1893 65.7356 62.8503 65.004 64.0549C64.2757 65.2537 63.4104 65.9454 62.4626 66.1935C61.2575 66.509 59.8015 66.1289 58.1709 64.8926L58.0633 64.811L57.9378 64.7609C54.2821 63.2998 49.4669 62.5999 44.6267 62.3105C39.7674 62.0199 34.7981 62.1389 30.7895 62.3587L30.5418 62.3722L30.3291 62.5001C30.2229 62.5639 30.1261 62.6048 30.0356 62.6285C29.8047 62.6889 29.5255 62.6787 29.179 62.5466L28.9742 62.4686L28.7555 62.4834C26.8104 62.615 25.1881 62.7601 24.051 62.8726C23.6919 62.9081 23.3811 62.9403 23.1238 62.9678L22.751 61.5439L22.751 61.5439L18.9071 46.8606C19.1358 46.7736 19.4068 46.6695 19.7161 46.549C20.7649 46.1405 22.2539 45.5437 24.019 44.7888L24.2514 44.6894L24.4086 44.4916C24.6594 44.1762 24.9098 44.0194 25.1481 43.957L25.1483 43.9569C25.2799 43.9224 25.43 43.9129 25.6062 43.9367L25.8878 43.9746L26.1473 43.8588C29.9125 42.1786 34.4926 39.9437 38.7032 37.3683C42.8926 34.8059 46.8086 31.8516 49.1597 28.7069L49.2027 28.6493L49.2371 28.5861C50.0019 27.1809 50.9388 26.382 51.9697 26.1122Z" stroke="white" stroke-width="2"/>
<path d="M64.7838 56.8364C65.3071 53.5111 65.0412 49.1038 63.8163 44.4248C62.5914 39.7459 60.6635 35.7737 58.5779 33.1314C57.5341 31.809 56.4812 30.8583 55.4956 30.3033C54.5158 29.7516 53.6623 29.6205 52.9378 29.8101L64.7838 56.8364ZM64.7838 56.8364C64.5219 58.5006 64.07 59.8453 63.4827 60.812M64.7838 56.8364L63.4827 60.812M63.4827 60.812C62.899 61.7731 62.2192 62.3056 61.4947 62.4953M63.4827 60.812L61.4947 62.4953M61.4947 62.4953C60.7702 62.685 59.9167 62.5539 58.9369 62.0022M61.4947 62.4953L58.9369 62.0022M58.9369 62.0022C57.9513 61.4472 56.8984 60.4965 55.8546 59.1741M58.9369 62.0022L55.8546 59.1741M55.8546 59.1741C53.769 56.5317 51.8411 52.5595 50.6162 47.8806M55.8546 59.1741L50.6162 47.8806M50.6162 47.8806C49.3913 43.2016 49.1254 38.7944 49.6487 35.4691M50.6162 47.8806L49.6487 35.4691M49.6487 35.4691C49.9106 33.8048 50.3625 32.4601 50.9497 31.4934M49.6487 35.4691L50.9497 31.4934M50.9497 31.4934C51.5335 30.5324 52.2133 29.9998 52.9378 29.8101L50.9497 31.4934Z" stroke="white" stroke-width="2"/>
<path d="M53.5079 47.1234L53.5079 47.1235C54.1052 49.405 54.2855 51.5187 54.1239 53.075C54.0427 53.8571 53.8807 54.4434 53.684 54.8301C53.5693 55.0557 53.463 55.1777 53.3803 55.2438C52.2886 53.1096 51.3314 50.6126 50.6163 47.8805C49.9011 45.1483 49.5118 42.5027 49.4177 40.1073C49.5222 40.1245 49.6747 40.1787 49.8853 40.3192C50.2462 40.5599 50.6747 40.9917 51.1287 41.6336C52.0321 42.9111 52.9107 44.842 53.5079 47.1234ZM49.0099 39.142L49.0985 39.4804L49.0984 39.4804L49.0099 39.142Z" stroke="white" stroke-width="2"/>
<path d="M26.4275 77.8309C26.5103 78.1475 26.5827 78.4702 26.6551 78.7926C26.7268 79.112 26.7984 79.4311 26.88 79.7437C27.203 81.0072 27.6799 82.1398 28.1148 82.8971C28.3293 83.2773 28.529 83.5693 28.6761 83.764M26.4275 77.8309L27.3965 77.5837C27.3962 77.5826 27.3959 77.5816 27.3957 77.5806M26.4275 77.8309L27.3949 77.5778C27.3952 77.5787 27.3954 77.5796 27.3957 77.5806M26.4275 77.8309C26.3484 77.5207 26.2622 77.2123 26.1691 76.9059C26.0764 76.6124 25.9768 76.3211 25.8704 76.0323C25.7638 75.7547 25.6468 75.4812 25.5199 75.2123C25.3904 74.9481 25.2511 74.6889 25.1023 74.4351C24.9577 74.1927 24.804 73.9557 24.6416 73.7248C24.7208 73.6562 24.7935 73.5815 24.8576 73.5048C24.8652 73.4957 24.8726 73.4866 24.8799 73.4775C25.0463 73.2706 25.1487 73.0529 25.1461 72.9037C25.1359 72.8629 25.1209 72.8154 25.1061 72.7724C25.1044 72.7674 25.1027 72.7625 25.101 72.7577C25.0851 72.7128 25.0701 72.6748 25.0622 72.6578C25.0528 72.6393 25.0367 72.6096 25.0302 72.5984L25.0144 72.5721L25.0051 72.5574L24.9945 72.5414L24.985 72.5276L24.9805 72.5213L24.9738 72.5119L24.964 72.4985L24.9535 72.4843L24.9427 72.4697L24.9434 72.4691M27.3957 77.5806C27.4826 77.9133 27.558 78.2493 27.629 78.5653L27.6298 78.5691C27.7025 78.8932 27.7707 79.1967 27.8475 79.4911L27.8488 79.496C28.1515 80.6796 28.596 81.7269 28.982 82.3991L28.9859 82.4058L28.9858 82.4058C29.1748 82.7409 29.3474 82.9929 29.4681 83.1534M27.3957 77.5806C27.313 77.2568 27.2231 76.9349 27.1259 76.6152L27.1259 76.6151L27.1227 76.6048C27.0253 76.2963 26.9206 75.9902 26.8088 75.6867L26.8089 75.6866L26.8039 75.6735C26.6883 75.3729 26.5617 75.0767 26.4243 74.7855L26.4211 74.7787L26.4178 74.772C26.2773 74.4856 26.1263 74.2045 25.9649 73.9293L25.9649 73.9293L25.9611 73.9229C25.7936 73.642 25.6149 73.3679 25.4254 73.1013L25.4175 73.0901L25.4092 73.0791L25.1522 72.7377L25.1475 72.7314L25.1427 72.7252L24.9434 72.4691M29.4681 83.1534L29.4613 83.1448L28.6761 83.764M29.4681 83.1534C29.4701 83.1561 29.4721 83.1587 29.474 83.1613L28.6761 83.764M29.4681 83.1534L29.621 83.3474M28.6761 83.764L28.8498 83.9843M28.8498 83.9843L29.6062 83.3303L29.621 83.3474M28.8498 83.9843L28.9137 84.0583M28.8498 83.9843L29.635 83.3651L29.621 83.3474M29.621 83.3474L29.6689 83.4028M28.9137 84.0583L29.6689 83.4028M28.9137 84.0583C29.2983 84.5013 29.7989 84.8283 30.3592 85.0024M28.9137 84.0583L29.6702 83.4043L29.6689 83.4028M29.6689 83.4028C29.9313 83.7051 30.2728 83.9282 30.6551 84.0472M30.3592 85.0024L30.6535 84.0467C30.654 84.0469 30.6546 84.047 30.6551 84.0472M30.3592 85.0024C32.0087 85.5104 33.7576 84.5849 34.2656 82.9354L34.3587 82.6329L34.3835 82.5524M30.3592 85.0024L30.6559 84.0474C30.6556 84.0474 30.6554 84.0473 30.6551 84.0472M30.6551 84.0472C31.7762 84.3915 32.9646 83.7624 33.3099 82.6411L33.403 82.3386L34.3554 82.6318L33.403 82.3386L33.4212 82.2795M33.4212 82.2795L33.4156 82.3011L34.3835 82.5524M33.4212 82.2795L33.4278 82.2581L34.3835 82.5524M33.4212 82.2795L33.4727 82.0813M34.3835 82.5524L34.4433 82.3221M34.4433 82.3221L33.4704 82.091C33.4711 82.0878 33.4719 82.0846 33.4727 82.0813M34.4433 82.3221C34.4908 82.1222 34.5493 81.8341 34.602 81.4718M34.4433 82.3221L33.4754 82.0709L33.4727 82.0813M33.4727 82.0813C33.5128 81.9111 33.5644 81.6569 33.6119 81.3315M34.602 81.4718L33.6113 81.3357C33.6115 81.3343 33.6117 81.3329 33.6119 81.3315M34.602 81.4718L33.6125 81.3278C33.6123 81.329 33.6121 81.3303 33.6119 81.3315M34.602 81.4718L33.6951 78.5136M33.6119 81.3315C33.7046 80.6562 33.7886 79.7275 33.6951 78.5136M33.6951 78.5136C33.6951 78.514 33.6951 78.5144 33.6951 78.5147L34.6911 78.436L33.695 78.5128C33.695 78.5131 33.695 78.5133 33.6951 78.5136ZM33.6951 78.5136C33.6467 77.9022 33.5439 77.2015 33.4129 76.3695M33.6951 78.5136L33.4136 76.3736C33.4134 76.3723 33.4131 76.3709 33.4129 76.3695M33.4129 76.3695C33.278 75.5583 33.1059 74.6739 32.833 73.7457M33.4129 76.3695L32.833 73.7457M32.833 73.7457C32.6904 73.2641 32.5293 72.7883 32.3499 72.3193C32.1602 71.8337 31.9496 71.3565 31.7187 70.8891C31.4784 70.4167 31.218 69.9547 30.9383 69.5045L30.9313 69.4932L30.9314 69.4932C30.8913 69.4267 30.846 69.358 30.7903 69.2735C30.7647 69.2348 30.737 69.1928 30.7066 69.1461L30.482 68.8111L30.0976 68.2565C30.0972 68.2559 30.0967 68.2553 30.0963 68.2547C29.7321 67.734 29.3768 67.185 29.0213 66.6358C28.9337 66.5006 28.8462 66.3653 28.7585 66.2304L28.7562 66.2269C28.7151 66.1631 28.6741 66.0993 28.6329 66.0355C28.3323 65.5685 28.0292 65.0975 27.7037 64.6144L26.9655 63.5188C26.4609 63.1074 25.9798 62.6022 25.5293 62.0314C24.1221 60.2487 22.8916 57.6713 22.1203 54.7251C21.3489 51.779 21.1587 48.9293 21.5118 46.6857C21.6189 46.0053 21.7788 45.3627 21.9979 44.7817L19.8072 45.3552L19.8072 45.3552L12.288 47.3236C12.288 47.3236 12.288 47.3236 12.288 47.3236C11.9864 47.4026 11.6582 47.6336 11.3481 48.1441C11.0345 48.6603 10.7783 49.4055 10.6276 50.3632C10.3267 52.2753 10.4768 54.8411 11.1951 57.5852C11.9135 60.3292 13.0399 62.6394 14.2392 64.1589C14.8399 64.9199 15.4284 65.444 15.9547 65.7403C16.4749 66.0333 16.8741 66.0739 17.1756 65.995C17.1757 65.995 17.1759 65.995 17.176 65.9949L17.3948 65.9376L17.4967 65.9108L17.6019 65.9059C17.7479 65.8991 17.8932 65.8827 18.037 65.8567C18.0375 65.8567 18.0379 65.8566 18.0383 65.8565L18.1145 65.8425L18.1155 65.8424L18.2118 65.8248L18.2141 65.8244L18.2403 65.8195C18.2518 65.8174 18.2697 65.8141 18.2886 65.811C18.3026 65.8087 18.3394 65.8026 18.382 65.7985C18.3957 65.7972 18.432 65.7938 18.4796 65.7936L18.5488 65.7876C18.5493 65.7876 18.5498 65.7875 18.5503 65.7875C18.6574 65.7779 18.7621 65.7744 18.8556 65.7736L18.8589 65.7736C18.9578 65.773 19.0668 65.7761 19.1735 65.7862C19.2596 65.7944 19.4238 65.8137 19.5907 65.8777L19.6109 65.8854L19.6308 65.894L19.6317 65.8944C19.6732 65.9124 19.7537 65.9474 19.84 66.0022C19.8792 66.0271 19.9103 66.0502 19.9213 66.0583L19.9223 66.0591L19.94 66.0721L19.9635 66.0889L19.9812 66.1032C19.9825 66.1041 19.9843 66.1055 19.9869 66.1075L19.9897 66.1096C19.999 66.1166 20.0146 66.1283 20.032 66.1418C20.0687 66.1702 20.1128 66.2057 20.1647 66.251C20.2906 66.3533 20.4319 66.4876 20.5791 66.6429C20.9085 66.9836 21.3091 67.4935 21.727 68.0642L21.7286 68.0664C21.9925 68.429 22.2807 68.8397 22.5818 69.2689C22.7587 69.521 22.9402 69.7796 23.1238 70.0386L23.1263 70.0421C23.6497 70.7871 24.1923 71.5184 24.7536 72.2354L24.8615 72.3696C24.8631 72.3708 24.8646 72.372 24.8658 72.3732C24.8793 72.3885 24.8974 72.4102 24.9025 72.4164L24.9097 72.4257L24.911 72.4273L24.9137 72.4308L24.9148 72.4322L24.9161 72.4338L24.9185 72.4369L24.9428 72.4683L24.9434 72.4691M32.833 73.7457L24.9434 72.4691M24.9473 72.4773L24.95 72.4811C24.9512 72.483 24.9532 72.486 24.9557 72.49C24.9677 72.5092 24.9925 72.5502 25.0112 72.5847C24.9917 72.6985 24.9619 72.8018 24.9238 72.8955C24.9209 72.9024 24.9181 72.9093 24.9151 72.9162C24.8081 73.1672 24.6408 73.3475 24.4551 73.4744L24.6103 73.6805L24.9625 72.4968C24.9627 72.4971 24.9627 72.497 24.9623 72.4964M24.9473 72.4773C24.9484 72.4786 24.9492 72.4796 24.9497 72.4803L24.9567 72.4893L24.9584 72.4914L24.9623 72.4964M24.9473 72.4773C24.9459 72.4755 24.944 72.4731 24.9418 72.4704L24.9623 72.4964M24.9473 72.4773L24.9431 72.471L24.9465 72.4753L24.9568 72.4892L24.9623 72.4964M24.1534 73.0822L24.1536 73.082L24.1534 73.0822ZM24.1534 73.0822L24.1568 73.0864L24.1568 73.0865L24.3533 73.3392L24.1557 73.0873C24.1546 73.0859 24.1536 73.0844 24.1524 73.0829C24.1492 73.0785 24.1456 73.0737 24.1421 73.069C24.1384 73.0639 24.1347 73.0589 24.1315 73.0546C24.1303 73.053 24.1292 73.0515 24.1282 73.0502C24.1226 73.0426 24.1194 73.0383 24.1221 73.0419L24.1285 73.05L24.1428 73.0685L24.1534 73.0822ZM24.8264 72.3504C24.8281 72.3519 24.8299 72.3536 24.8318 72.3553C24.7911 72.3416 24.7227 72.3336 24.6365 72.3353L24.7127 72.2756C24.7669 72.3077 24.8088 72.3357 24.8264 72.3504ZM24.7014 72.269L24.6183 72.3358C24.3959 72.3435 24.0652 72.4141 23.7796 72.6121C23.7468 72.5697 23.7141 72.5273 23.6814 72.4848C23.896 72.2967 24.1595 72.1528 24.4292 72.1364C24.5203 72.1698 24.6224 72.2228 24.7014 72.269Z" stroke="white" stroke-width="2"/>
</svg>
