<svg width="100" height="100" viewBox="0 0 100 100" fill="none" xmlns="http://www.w3.org/2000/svg">
<path d="M79.0503 50.8421C77.1265 48.9179 74.0114 48.9171 72.0871 50.842C61.2667 61.6624 80.1769 42.752 52.9309 69.9981C44.0993 78.8294 29.5469 73.1488 29.842 61.0516C29.9318 57.3728 31.4547 53.8731 34.1304 51.1974L53.2864 32.0414C55.2106 30.1176 55.2113 27.0025 53.2864 25.0782L45.6271 17.4187C43.7028 15.4944 40.5882 15.4942 38.6638 17.4187C35.9325 20.1502 21.9105 34.1721 18.9506 37.1319C12.5416 43.5409 9.00773 52.0622 9.00001 61.1259C8.98475 79.3152 23.4727 94.9826 42.8495 95C52.1681 95 60.7724 91.4018 67.1873 84.9868L86.7095 65.4647C88.6337 63.5408 88.6343 60.4258 86.7095 58.5014L79.0503 50.8421ZM42.1454 20.9004L49.8049 28.5599L40.211 38.1539L32.5516 30.4944L42.1454 20.9004ZM63.7058 81.5053C52.3742 92.8369 33.6929 92.9972 22.3946 81.6584C11.109 70.3324 11.1259 51.9199 22.4322 40.6135L29.0698 33.9758L36.7293 41.6353L30.6487 47.7159C23.2443 55.1198 22.9487 66.8937 30.0915 74.0365C37.1946 81.1396 49.002 80.8897 56.4123 73.4795L62.4929 67.3989L70.1524 75.0584L63.7058 81.5053ZM73.6343 71.577L65.9748 63.9175L75.5688 54.3235L83.2283 61.983L73.6343 71.577Z" fill="white"/>
<path d="M82.4704 9.94825L67.9085 17.2002L66.1205 18.1046L67.3864 19.6446L75.8755 30.2466L60.568 37.3333L63.1121 30.4059L60.0758 29.2908L55.6154 41.4362L67.7608 45.8966L68.8759 42.8603L61.9485 40.3162L79.1385 32.3633L81.0181 31.4909L79.7236 29.8835L71.1561 19.1992L83.8863 12.839L82.4704 9.94825Z" fill="white"/>
</svg>
