<svg width="100" height="100" viewBox="0 0 100 100" fill="none" xmlns="http://www.w3.org/2000/svg">
<g clip-path="url(#clip0)">
<path d="M49.9999 17.6521C42.4478 17.6521 36.3042 23.7955 36.3042 31.3478C36.3042 38.9001 42.4476 45.0435 49.9999 45.0435C57.5522 45.0435 63.6956 38.8999 63.6956 31.3478C63.6956 23.7957 57.5522 17.6521 49.9999 17.6521ZM49.9999 41.1304C44.6078 41.1304 40.2174 36.7399 40.2174 31.3478C40.2174 25.9557 44.6078 21.5653 49.9999 21.5653C55.392 21.5653 59.7824 25.9557 59.7824 31.3478C59.7824 36.7399 55.3922 41.1304 49.9999 41.1304Z" fill="white"/>
<path d="M77.3913 33.3044C71.9992 33.3044 67.6088 37.6948 67.6088 43.0869C67.6088 48.479 71.9992 52.8695 77.3913 52.8695C82.7834 52.8695 87.1739 48.479 87.1739 43.0869C87.1739 37.6948 82.7834 33.3044 77.3913 33.3044ZM77.3913 48.9565C74.1552 48.9565 71.5218 46.3231 71.5218 43.0869C71.5218 39.8508 74.1552 37.2174 77.3913 37.2174C80.6275 37.2174 83.2609 39.8508 83.2609 43.0869C83.2609 46.3231 80.6273 48.9565 77.3913 48.9565Z" fill="white"/>
<path d="M22.8866 33.3044C17.4904 33.3044 13.104 37.6948 13.104 43.0869C13.104 48.479 17.4945 52.8695 22.8866 52.8695C28.2787 52.8695 32.6691 48.479 32.6691 43.0869C32.6691 37.6948 28.2825 33.3044 22.8866 33.3044ZM22.8866 48.9565C19.6504 48.9565 17.017 46.3231 17.017 43.0869C17.017 39.8508 19.6504 37.2174 22.8866 37.2174C26.1227 37.2174 28.7561 39.8508 28.7561 43.0869C28.7561 46.3231 26.1225 48.9565 22.8866 48.9565Z" fill="white"/>
<path d="M49.9999 48.9565C35.9755 48.9565 24.5651 60.3669 24.5651 74.3913C24.5651 75.4713 25.4417 76.3479 26.5217 76.3479C27.6017 76.3479 28.4783 75.4713 28.4783 74.3913C28.4783 62.5231 38.1317 52.8697 49.9999 52.8697C61.8682 52.8697 71.5216 62.5231 71.5216 74.3913C71.5216 75.4713 72.3981 76.3479 73.4781 76.3479C74.5581 76.3479 75.4347 75.4713 75.4347 74.3913C75.4347 60.3669 64.0243 48.9565 49.9999 48.9565Z" fill="white"/>
<path d="M77.3913 56.7826C74.1709 56.7826 71.017 57.6631 68.27 59.3262C67.3505 59.8896 67.053 61.0909 67.6126 62.0144C68.18 62.938 69.3773 63.2314 70.3009 62.6718C72.4334 61.3765 74.883 60.6956 77.3913 60.6956C84.9434 60.6956 91.087 66.839 91.087 74.3913C91.087 75.4713 91.9636 76.3479 93.0436 76.3479C94.1236 76.3479 95.0002 75.4713 95.0002 74.3913C95 64.6831 87.0996 56.7826 77.3913 56.7826Z" fill="white"/>
<path d="M31.7261 59.3221C28.983 57.6631 25.8292 56.7826 22.6087 56.7826C12.9004 56.7826 5 64.6831 5 74.3913C5 75.4713 5.87658 76.3479 6.95658 76.3479C8.03658 76.3479 8.91316 75.4713 8.91316 74.3913C8.91298 66.839 15.0566 60.6956 22.6087 60.6956C25.117 60.6956 27.5664 61.3765 29.6953 62.6678C30.6148 63.2274 31.82 62.9339 32.3835 62.0104C32.947 61.0868 32.6495 59.8856 31.7261 59.3221Z" fill="white"/>
<path d="M43.5645 85.575L36.2559 78.2664L33.1176 81.4047L43.5645 91.8515L65.1085 70.3075L61.9702 67.1692L43.5645 85.575Z" fill="white"/>
</g>
<defs>
<clipPath id="clip0">
<rect width="90" height="90" fill="white" transform="translate(5 2)"/>
</clipPath>
</defs>
</svg>
