<svg width="100" height="100" viewBox="0 0 100 100" fill="none" xmlns="http://www.w3.org/2000/svg">
<g clip-path="url(#clip0)">
<path d="M71.2592 91.7719H10.4423C10.1197 91.7719 9.81035 91.6437 9.58227 91.4156C9.35418 91.1875 9.22604 90.8782 9.22604 90.5556V7.85294C9.22604 7.53037 9.35418 7.22103 9.58227 6.99294C9.81035 6.76486 10.1197 6.63672 10.4423 6.63672H51.8058C52.1281 6.63647 52.4374 6.7642 52.6656 6.99185L72.1251 26.4404C72.3532 26.6684 72.4814 26.9777 72.4814 27.3002V90.5556C72.4814 90.7159 72.4498 90.8745 72.3883 91.0225C72.3268 91.1704 72.2367 91.3048 72.1231 91.4178C72.0095 91.5308 71.8747 91.6203 71.7264 91.681C71.5782 91.7418 71.4194 91.7727 71.2592 91.7719V91.7719ZM11.6585 89.3394H70.049V27.805L51.2962 9.06915H11.6585V89.3394Z" fill="white"/>
<path d="M71.2592 28.3365H51.7997C51.4771 28.3365 51.1678 28.2083 50.9397 27.9803C50.7116 27.7522 50.5835 27.4428 50.5835 27.1203V7.64865C50.5835 7.32609 50.7116 7.01674 50.9397 6.78866C51.1678 6.56057 51.4771 6.43243 51.7997 6.43243C52.1222 6.43243 52.4316 6.56057 52.6597 6.78866C52.8878 7.01674 53.0159 7.32609 53.0159 7.64865V25.9041H71.2592C71.5817 25.9041 71.8911 26.0322 72.1192 26.2603C72.3472 26.4884 72.4754 26.7977 72.4754 27.1203C72.4754 27.4428 72.3472 27.7522 72.1192 27.9803C71.8911 28.2083 71.5817 28.3365 71.2592 28.3365Z" fill="white"/>
<path d="M62.7395 49.9122H18.9618C18.6393 49.9122 18.3299 49.784 18.1018 49.5559C17.8737 49.3279 17.7456 49.0185 17.7456 48.6959C17.7456 48.3734 17.8737 48.064 18.1018 47.8359C18.3299 47.6079 18.6393 47.4797 18.9618 47.4797H62.7395C63.0621 47.4797 63.3714 47.6079 63.5995 47.8359C63.8276 48.064 63.9557 48.3734 63.9557 48.6959C63.9557 49.0185 63.8276 49.3279 63.5995 49.5559C63.3714 49.784 63.0621 49.9122 62.7395 49.9122Z" fill="white"/>
<path d="M62.7395 40.2846H18.9618C18.6393 40.2846 18.3299 40.1564 18.1018 39.9284C17.8737 39.7003 17.7456 39.3909 17.7456 39.0684C17.7456 38.7458 17.8737 38.4365 18.1018 38.2084C18.3299 37.9803 18.6393 37.8522 18.9618 37.8522H62.7395C63.0621 37.8522 63.3714 37.9803 63.5995 38.2084C63.8276 38.4365 63.9557 38.7458 63.9557 39.0684C63.9557 39.3909 63.8276 39.7003 63.5995 39.9284C63.3714 40.1564 63.0621 40.2846 62.7395 40.2846Z" fill="white"/>
<path d="M44.4963 30.6582H18.9618C18.6393 30.6582 18.3299 30.5301 18.1018 30.302C17.8737 30.0739 17.7456 29.7646 17.7456 29.442C17.7456 29.1195 17.8737 28.8101 18.1018 28.582C18.3299 28.354 18.6393 28.2258 18.9618 28.2258H44.4963C44.8188 28.2258 45.1282 28.354 45.3563 28.582C45.5844 28.8101 45.7125 29.1195 45.7125 29.442C45.7125 29.7646 45.5844 30.0739 45.3563 30.302C45.1282 30.5301 44.8188 30.6582 44.4963 30.6582Z" fill="white"/>
<path d="M44.4963 21.027H18.9618C18.6393 21.027 18.3299 20.8989 18.1018 20.6708C17.8737 20.4427 17.7456 20.1334 17.7456 19.8108C17.7456 19.4883 17.8737 19.1789 18.1018 18.9508C18.3299 18.7227 18.6393 18.5946 18.9618 18.5946H44.4963C44.8188 18.5946 45.1282 18.7227 45.3563 18.9508C45.5844 19.1789 45.7125 19.4883 45.7125 19.8108C45.7125 20.1334 45.5844 20.4427 45.3563 20.6708C45.1282 20.8989 44.8188 21.027 44.4963 21.027Z" fill="white"/>
<path d="M40.8477 82.3949C38.302 82.3949 35.8135 81.64 33.6968 80.2257C31.5801 78.8114 29.9304 76.8012 28.9562 74.4493C27.982 72.0974 27.7271 69.5094 28.2238 67.0126C28.7204 64.5158 29.9463 62.2224 31.7463 60.4223C33.5464 58.6223 35.8398 57.3964 38.3366 56.8998C40.8334 56.4031 43.4214 56.658 45.7733 57.6322C48.1252 58.6064 50.1354 60.2561 51.5497 62.3728C52.964 64.4895 53.7189 66.978 53.7189 69.5237C53.7153 72.9362 52.3581 76.208 49.9451 78.6211C47.532 81.0341 44.2602 82.3913 40.8477 82.3949ZM40.8477 59.0849C38.7831 59.0849 36.7648 59.6971 35.0482 60.8441C33.3315 61.9912 31.9936 63.6215 31.2035 65.5289C30.4134 67.4364 30.2067 69.5352 30.6095 71.5602C31.0122 73.5851 32.0064 75.4451 33.4663 76.905C34.9262 78.3649 36.7862 79.3591 38.8112 79.7619C40.8361 80.1647 42.935 79.9579 44.8424 79.1678C46.7499 78.3778 48.3802 77.0398 49.5272 75.3231C50.6742 73.6065 51.2865 71.5883 51.2865 69.5237C51.2836 66.756 50.1828 64.1025 48.2258 62.1455C46.2688 60.1885 43.6153 59.0878 40.8477 59.0849V59.0849Z" fill="white"/>
<path d="M38.6816 74.3508C38.359 74.3507 38.0497 74.2225 37.8217 73.9944L34.9332 71.1059C34.7117 70.8765 34.5891 70.5693 34.5918 70.2504C34.5946 69.9316 34.7225 69.6265 34.948 69.401C35.1735 69.1755 35.4786 69.0476 35.7974 69.0448C36.1163 69.0421 36.4236 69.1647 36.6529 69.3862L38.6816 71.4148L45.0424 65.0528C45.2718 64.8313 45.579 64.7087 45.8979 64.7115C46.2168 64.7142 46.5218 64.8421 46.7473 65.0676C46.9728 65.2931 47.1007 65.5982 47.1035 65.9171C47.1062 66.236 46.9837 66.5432 46.7621 66.7726L39.5414 73.9944C39.3134 74.2225 39.0041 74.3507 38.6816 74.3508Z" fill="white"/>
<path d="M82.4691 41L82.4691 85.864L86.5 91.5L90 85.864L90 62.5L90 41L82.4691 41Z" fill="white"/>
<path d="M82.2986 30.5044L82.2986 38.2899L90.0858 38.2917L90.0841 30.5044C90.0838 29.4721 89.6735 28.4822 88.9436 27.7522C88.2136 27.0223 87.2237 26.612 86.1913 26.6117V26.6117C85.159 26.612 84.1691 27.0223 83.4391 27.7522C82.7092 28.4822 82.2989 29.4721 82.2986 30.5044V30.5044Z" fill="white"/>
</g>
<defs>
<clipPath id="clip0">
<rect width="90" height="90" fill="white" transform="translate(2 4)"/>
</clipPath>
</defs>
</svg>
