<svg width="100" height="100" viewBox="0 0 100 100" fill="none" xmlns="http://www.w3.org/2000/svg">
<g clip-path="url(#clip0)">
<path d="M73.968 47.0562L72.1198 45.208C71.6015 44.6897 70.7611 44.6895 70.2429 45.2079C69.7246 45.7262 69.7245 46.5667 70.2429 47.0849L71.1095 47.9516C68.5587 50.0735 65.3767 51.2286 62.0175 51.2286C58.2124 51.2286 54.6347 49.7467 51.944 47.056C46.7057 41.8177 46.407 33.482 51.0489 27.8909L65.7279 42.5701C66.2461 43.0883 67.0865 43.0883 67.6049 42.5701C68.1233 42.0515 68.1233 41.2113 67.6049 40.6929L66.5782 39.6662L70.2574 30.4679C70.6816 29.4076 69.5933 28.317 68.5321 28.7426L59.3342 32.422L51.9443 25.0322C51.4335 24.5212 50.5783 24.5212 50.0673 25.0322C43.4776 31.6219 43.4776 42.3437 50.0673 48.9336C53.2594 52.1254 57.5034 53.8834 62.0178 53.8834C66.5323 53.8834 70.7763 52.1254 73.9684 48.9334C74.4864 48.4146 74.4864 47.5744 73.968 47.0562ZM66.6427 32.3573L64.5361 37.6239L63.7604 36.8482L61.3761 34.4637L66.6427 32.3573Z" fill="white"/>
<path d="M82.8564 16.1438C79.6642 12.9514 75.4201 11.1934 70.9057 11.1934C70.1727 11.1934 69.5784 11.7876 69.5784 12.5208C69.5784 13.2539 70.1729 13.8481 70.9059 13.8481C74.711 13.8481 78.2887 15.3301 80.9794 18.0208C83.6701 20.7113 85.1519 24.2888 85.1519 28.0941C85.1519 28.8273 85.7462 29.4215 86.4792 29.4215C87.2123 29.4215 87.8066 28.8271 87.8066 28.0941C87.8066 23.5795 86.0484 19.3356 82.8564 16.1438Z" fill="white"/>
<path d="M78.8521 20.1479C76.7295 18.0255 73.9075 16.8564 70.9059 16.8564C70.1729 16.8564 69.5786 17.4506 69.5786 18.1837C69.5786 18.9169 70.1729 19.5111 70.9059 19.5111C73.1986 19.5111 75.3539 20.4039 76.9751 22.0251C78.5962 23.6462 79.4889 25.8014 79.4889 28.0941C79.4889 28.8273 80.0833 29.4215 80.8163 29.4215C81.5493 29.4215 82.1436 28.8273 82.1436 28.0941C82.1434 25.0925 80.9747 22.2705 78.8521 20.1479Z" fill="white"/>
<path d="M74.8478 24.1524C73.795 23.0998 72.3951 22.5197 70.9061 22.5195C70.1731 22.5195 69.5787 23.1137 69.5787 23.8467C69.5787 24.5797 70.1727 25.174 70.9057 25.1742C71.6858 25.1744 72.4192 25.4783 72.9706 26.0297C73.522 26.581 73.826 27.3143 73.826 28.0943C73.826 28.8275 74.4203 29.4216 75.1533 29.4216C75.8863 29.4216 76.4806 28.8275 76.4806 28.0943C76.4805 26.6051 75.9005 25.2051 74.8478 24.1524Z" fill="white"/>
<path d="M90.6114 81.7189L66.585 57.6924C66.074 57.1814 65.219 57.1814 64.708 57.6924L58.6388 63.7616L51.8816 57.0044L53.9463 54.9397C54.4575 54.4283 54.4575 53.5737 53.9463 53.0625L45.9375 45.0537C45.4193 44.5357 44.5789 44.5353 44.0605 45.0537L41.9956 47.1184L35.2384 40.361L41.3074 34.292C41.8258 33.7734 41.8258 32.9332 41.3074 32.4148L17.2811 8.38865C16.7703 7.87765 15.9151 7.87765 15.4041 8.38865L1.38885 22.4041C0.870466 22.9226 0.870466 23.7629 1.38885 24.2812L25.4152 48.3076C25.926 48.8184 26.7812 48.8184 27.2922 48.3076L33.3614 42.2384L40.1186 48.9956L38.0539 51.0603C37.5427 51.5717 37.5427 52.4263 38.0539 52.9375L39.1176 54.0012L37.0528 56.0659C36.5417 56.5772 36.5417 57.4319 37.0528 57.9431L41.0571 61.9475C41.568 62.4584 42.4231 62.4584 42.9341 61.9475L44.9989 59.8828L46.0625 60.9465C46.574 61.4578 47.4282 61.4578 47.9395 60.9465L50.0044 58.8817L56.7616 65.6391L50.6926 71.7082C50.1742 72.2267 50.1742 73.067 50.6926 73.5853L74.719 97.6117C75.2298 98.1225 76.085 98.1225 76.596 97.6117L90.6114 83.5963C91.1298 83.0774 91.1298 82.2371 90.6114 81.7189ZM30.483 25.3447L25.3524 30.4753L19.2208 24.3436L24.3514 19.2131L30.483 25.3447ZM16.3426 11.2043L22.4742 17.3359L17.3437 22.4665L11.212 16.3349L16.3426 11.2043ZM10.3393 29.4773L4.20452 23.3426L9.33505 18.212L15.4667 24.3436L10.3987 29.4116C10.3774 29.4329 10.3586 29.4552 10.3393 29.4773ZM18.3479 37.4861L12.2098 31.348C12.2319 31.3287 12.2544 31.3099 12.2754 31.2888L17.3435 26.2206L23.4751 32.3523L18.407 37.4202C18.3862 37.4417 18.3672 37.464 18.3479 37.4861ZM26.3537 45.4919L20.2189 39.357C20.2411 39.3376 20.2636 39.3188 20.2847 39.2977L25.3528 34.2296L31.4844 40.3612L26.3537 45.4919ZM27.2296 32.3524L32.3602 27.2219L38.4918 33.3535L33.3612 38.484L27.2296 32.3524ZM41.9956 59.1317L39.8683 57.0044L40.9946 55.8783L43.1219 58.0056L41.9956 59.1317ZM47.0012 58.1306L40.8696 51.999L44.9992 47.8695L51.1308 54.0012L47.0012 58.1306ZM79.7871 74.6486L74.6564 79.7792L68.5248 73.6476L73.6555 68.517L79.7871 74.6486ZM65.6465 60.5081L71.7781 66.6397L66.6474 71.7702L60.5158 65.6386L65.6465 60.5081ZM59.6432 78.7813L53.5084 72.6465L58.639 67.516L64.7706 73.6476L59.7026 78.7155C59.6814 78.7368 59.6626 78.7591 59.6432 78.7813ZM67.6518 86.79L61.5137 80.6519C61.5359 80.6326 61.5584 80.6138 61.5795 80.5927L66.6476 75.5246L72.7792 81.6562L67.7112 86.7241C67.6902 86.7454 67.6712 86.7677 67.6518 86.79ZM75.6576 94.7957L69.5229 88.6607C69.545 88.6414 69.5675 88.6226 69.5886 88.6015L74.6567 83.5333L80.7883 89.665L75.6576 94.7957ZM82.6652 87.788L76.5335 81.6563L81.6643 76.5256L87.7959 82.6572L82.6652 87.788Z" fill="white"/>
</g>
<defs>
<clipPath id="clip0">
<rect width="90" height="90" fill="white" transform="translate(1 8)"/>
</clipPath>
</defs>
</svg>
