<svg width="481" height="481" viewBox="0 0 481 481" fill="none" xmlns="http://www.w3.org/2000/svg">
<g clip-path="url(#clip0)">
<path d="M200.182 32.106C107.398 32.106 32.1816 107.322 32.1816 200.106C32.1816 292.89 107.398 368.106 200.182 368.106C292.966 368.106 368.182 292.89 368.182 200.106C368.081 107.364 292.924 32.207 200.182 32.106ZM200.182 48.106C249.598 48.145 295.905 72.229 324.31 112.666L304.31 132.666C299.443 129.721 293.871 128.145 288.182 128.106C270.509 128.106 256.182 142.433 256.182 160.106C256.21 165.801 257.777 171.382 260.718 176.258L208.334 228.642C198.415 222.594 185.949 222.594 176.03 228.642L139.646 192.258C142.587 187.382 144.154 181.801 144.182 176.106C144.204 158.468 129.924 144.152 112.286 144.13C97.6986 144.112 84.9536 153.979 81.3176 168.106H51.6376C66.7846 98.159 128.614 48.211 200.182 48.106ZM304.182 160.106C304.182 168.943 297.019 176.106 288.182 176.106C279.345 176.106 272.182 168.943 272.182 160.106C272.182 151.269 279.345 144.106 288.182 144.106C297.019 144.106 304.182 151.269 304.182 160.106ZM208.182 256.106C208.182 264.943 201.019 272.106 192.182 272.106C183.345 272.106 176.182 264.943 176.182 256.106C176.182 247.269 183.345 240.106 192.182 240.106C201.019 240.106 208.182 247.269 208.182 256.106ZM128.182 176.106C128.182 184.943 121.019 192.106 112.182 192.106C103.345 192.106 96.1816 184.943 96.1816 176.106C96.1816 167.269 103.345 160.106 112.182 160.106C121.019 160.106 128.182 167.269 128.182 176.106ZM274.036 333.012C251.444 345.556 226.024 352.128 200.182 352.105C116.292 352.162 48.2386 284.203 48.1816 200.313C48.1776 194.899 48.4636 189.488 49.0376 184.105H81.3176C84.9546 198.19 97.6346 208.05 112.182 208.105C117.877 208.077 123.458 206.51 128.334 203.569L164.718 239.953C161.777 244.829 160.21 250.41 160.182 256.105C160.182 273.778 174.509 288.105 192.182 288.105C209.855 288.105 224.182 273.778 224.182 256.105C224.154 250.41 222.587 244.829 219.646 239.953L272.03 187.569C276.906 190.51 282.487 192.077 288.182 192.105C305.855 192.105 320.182 177.778 320.182 160.105C320.154 154.41 318.587 148.829 315.646 143.953L333.086 126.521C373.801 199.849 347.363 292.298 274.036 333.012Z" fill="white"/>
<path d="M400.182 80.106C414.729 80.051 427.409 70.192 431.046 56.106H480.182V40.106H431.046C427.409 26.02 414.729 16.161 400.182 16.106C382.509 16.106 368.182 30.433 368.182 48.106C368.21 53.801 369.777 59.382 372.718 64.258L358.662 78.314C291.407 -9.30698 165.855 -25.817 78.2337 41.438C-9.38731 108.693 -25.8973 234.246 41.3577 321.867C104.842 404.574 221.213 424.637 308.726 367.962L332.87 392.106L344.182 403.418L408.582 467.818C424.961 484.197 451.515 484.197 467.894 467.818C484.273 451.439 484.273 424.885 467.894 408.506L403.494 344.106L392.182 332.794L368.038 308.65C410.897 242.634 410.897 157.579 368.038 91.562L384.038 75.562C388.911 78.504 394.49 80.074 400.182 80.106ZM400.182 32.106C409.019 32.106 416.182 39.269 416.182 48.106C416.182 56.943 409.019 64.106 400.182 64.106C391.345 64.106 384.182 56.943 384.182 48.106C384.182 39.269 391.346 32.106 400.182 32.106ZM456.582 419.818C466.828 429.834 467.015 446.26 456.999 456.506C446.983 466.752 430.557 466.939 420.311 456.923C420.17 456.786 420.032 456.647 419.894 456.506L355.494 392.106L392.182 355.418L456.582 419.818ZM380.87 344.106L344.182 380.794L322.038 358.65C323.166 357.786 324.222 356.834 325.334 355.946C326.446 355.058 327.734 353.994 328.926 352.994C330.678 351.522 332.406 350.034 334.102 348.506C334.974 347.706 335.806 346.906 336.662 346.106C339.942 343.034 343.118 339.858 346.19 336.578C346.99 335.722 347.79 334.89 348.59 334.018C350.118 332.322 351.606 330.594 353.078 328.842C354.081 327.658 355.065 326.461 356.03 325.25C356.91 324.146 357.862 323.09 358.726 321.962L380.87 344.106ZM349.846 306.946C347.326 310.466 344.726 313.914 341.982 317.234C341.182 318.202 340.326 319.138 339.502 320.09C337.054 322.938 334.526 325.701 331.918 328.378C330.782 329.551 329.627 330.706 328.454 331.842C325.787 334.45 323.025 336.978 320.166 339.426C319.214 340.226 318.278 341.098 317.31 341.906C313.99 344.65 310.542 347.25 307.022 349.77C224.206 408.935 109.107 389.762 49.9417 306.946C-9.2233 224.13 9.94969 109.031 92.7657 49.866C175.582 -9.29898 290.681 9.87302 349.846 92.69C395.627 156.772 395.627 242.864 349.846 306.946Z" fill="white"/>
</g>
<defs>
<clipPath id="clip0">
<rect width="480.182" height="480.182" fill="white"/>
</clipPath>
</defs>
</svg>
