<svg width="512" height="512" viewBox="0 0 512 512" fill="none" xmlns="http://www.w3.org/2000/svg">
<path d="M504.5 497H7.5C3.357 497 0 500.357 0 504.5C0 508.643 3.357 512 7.5 512H504.5C508.643 512 512 508.643 512 504.5C512 500.357 508.643 497 504.5 497Z" fill="white"/>
<path d="M7.5 482H109.25C113.393 482 116.75 478.643 116.75 474.5V391.667C116.75 387.524 113.393 384.167 109.25 384.167H7.5C3.357 384.167 0 387.524 0 391.667V474.5C0 478.643 3.357 482 7.5 482ZM15 399.167H101.75V467H15V399.167Z" fill="white"/>
<path d="M241 233.5C245.143 233.5 248.5 230.143 248.5 226V143.167C248.5 139.024 245.143 135.667 241 135.667H139.25C135.107 135.667 131.75 139.024 131.75 143.167V474.5C131.75 478.643 135.107 482 139.25 482H241C245.143 482 248.5 478.643 248.5 474.5V256C248.5 251.857 245.143 248.5 241 248.5C236.857 248.5 233.5 251.857 233.5 256V467H146.75V150.667H233.5V226C233.5 230.143 236.857 233.5 241 233.5V233.5Z" fill="white"/>
<path d="M504.5 218.5H402.75C398.607 218.5 395.25 221.857 395.25 226V474.5C395.25 478.643 398.607 482 402.75 482H504.5C508.643 482 512 478.643 512 474.5V226C512 221.857 508.643 218.5 504.5 218.5ZM497 467H410.25V233.5H497V467Z" fill="white"/>
<path d="M271 94.25C266.857 94.25 263.5 97.607 263.5 101.75V474.5C263.5 478.643 266.857 482 271 482H372.75C376.893 482 380.25 478.643 380.25 474.5V101.75C380.25 97.607 376.893 94.25 372.75 94.25H271ZM365.25 467H278.5V109.25H365.25V467Z" fill="white"/>
<path d="M58.376 120.667C70.638 120.667 81.007 112.434 84.264 101.208H164.237C167.495 112.434 177.864 120.667 190.125 120.667C204.989 120.667 217.083 108.573 217.083 93.708C217.083 91.996 216.916 90.323 216.609 88.698L302.184 45.342C307.108 50.613 314.111 53.916 321.875 53.916C329.639 53.916 336.643 50.612 341.566 45.342L427.141 88.698C426.834 90.322 426.667 91.995 426.667 93.708C426.667 108.573 438.761 120.667 453.625 120.667C468.489 120.667 480.583 108.573 480.583 93.708C480.583 78.844 468.489 66.75 453.625 66.75C445.861 66.75 438.857 70.054 433.934 75.324L348.359 31.968C348.666 30.343 348.833 28.67 348.833 26.958C348.834 12.094 336.74 0 321.876 0C307.012 0 294.918 12.094 294.918 26.958C294.918 28.67 295.085 30.344 295.392 31.968L209.817 75.324C204.893 70.054 197.89 66.75 190.126 66.75C177.864 66.75 167.495 74.982 164.238 86.208H84.264C81.007 74.982 70.638 66.75 58.376 66.75C43.512 66.75 31.418 78.844 31.418 93.708C31.418 108.573 43.512 120.667 58.376 120.667V120.667ZM453.626 81.75C460.22 81.75 465.584 87.114 465.584 93.708C465.584 100.302 460.22 105.667 453.626 105.667C447.032 105.667 441.668 100.302 441.668 93.708C441.668 87.114 447.032 81.75 453.626 81.75ZM321.876 15C328.47 15 333.834 20.364 333.834 26.958C333.834 33.552 328.47 38.917 321.876 38.917C315.282 38.917 309.918 33.552 309.918 26.958C309.918 20.364 315.282 15 321.876 15V15ZM190.126 81.75C196.72 81.75 202.084 87.114 202.084 93.708C202.084 100.302 196.72 105.667 190.126 105.667C183.532 105.667 178.168 100.302 178.168 93.708C178.168 87.114 183.532 81.75 190.126 81.75ZM58.376 81.75C64.97 81.75 70.334 87.114 70.334 93.708C70.334 100.302 64.97 105.667 58.376 105.667C51.782 105.667 46.418 100.302 46.418 93.708C46.418 87.114 51.782 81.75 58.376 81.75Z" fill="white"/>
</svg>
