<svg width="512" height="512" viewBox="0 0 512 512" fill="none" xmlns="http://www.w3.org/2000/svg">
<g clip-path="url(#clip0)">
<path d="M260.082 297.237H241.124C239.289 297.237 237.529 296.508 236.232 295.21C234.934 293.913 234.205 292.153 234.205 290.318C234.205 288.483 234.934 286.723 236.232 285.425C237.529 284.128 239.289 283.399 241.124 283.399H260.082C261.917 283.399 263.677 284.128 264.974 285.425C266.272 286.723 267.001 288.483 267.001 290.318C267.001 292.153 266.272 293.913 264.974 295.21C263.677 296.508 261.917 297.237 260.082 297.237Z" fill="white"/>
<path d="M314.742 297.237H298.275C296.44 297.237 294.68 296.508 293.382 295.21C292.085 293.913 291.356 292.153 291.356 290.318C291.356 288.483 292.085 286.723 293.382 285.426C294.68 284.128 296.44 283.399 298.275 283.399H314.742C319.577 283.399 324.214 281.478 327.633 278.059C331.052 274.64 332.973 270.003 332.973 265.168C332.973 260.332 331.052 255.695 327.633 252.276C324.214 248.857 319.577 246.936 314.742 246.936H312.874C311.897 246.936 310.931 246.729 310.04 246.329C309.149 245.929 308.353 245.344 307.704 244.614C307.055 243.884 306.568 243.025 306.274 242.093C305.981 241.161 305.889 240.178 306.003 239.208C306.106 238.351 306.159 237.49 306.162 236.627C306.164 228.417 303.485 220.43 298.533 213.881C293.58 207.333 286.625 202.58 278.724 200.346C270.824 198.112 262.409 198.519 254.761 201.505C247.113 204.49 240.648 209.892 236.351 216.887C235.55 218.003 234.47 218.889 233.219 219.455C231.968 220.021 230.59 220.247 229.224 220.112H229.189C223.283 220.081 217.562 222.175 213.072 226.013C208.581 229.85 205.621 235.174 204.731 241.014C204.492 242.659 203.667 244.164 202.41 245.251C201.152 246.339 199.544 246.937 197.881 246.936C195.455 246.842 193.034 247.234 190.761 248.088C188.488 248.942 186.408 250.241 184.644 251.91C182.88 253.578 181.466 255.583 180.487 257.804C179.508 260.026 178.982 262.422 178.94 264.85C178.899 267.277 179.343 269.689 180.246 271.943C181.149 274.197 182.493 276.248 184.199 277.976C185.905 279.704 187.939 281.074 190.182 282.005C192.424 282.936 194.83 283.41 197.259 283.399H202.932C204.767 283.399 206.527 284.128 207.825 285.426C209.122 286.723 209.851 288.483 209.851 290.318C209.851 292.153 209.122 293.913 207.825 295.21C206.527 296.508 204.767 297.237 202.932 297.237H197.259C189.184 297.24 181.405 294.196 175.476 288.715C169.547 283.233 165.904 275.716 165.275 267.666C164.646 259.616 167.077 251.624 172.083 245.288C177.088 238.952 184.3 234.737 192.277 233.486C194.578 225.979 199.117 219.355 205.285 214.498C211.454 209.641 218.959 206.784 226.795 206.308C233.038 197.722 241.78 191.274 251.826 187.844C261.872 184.415 272.733 184.172 282.922 187.15C293.111 190.127 302.133 196.179 308.752 204.477C315.372 212.776 319.266 222.917 319.903 233.514C327.859 234.806 335.037 239.048 340.007 245.393C344.977 251.738 347.375 259.723 346.725 267.757C346.074 275.791 342.422 283.285 336.495 288.748C330.568 294.211 322.802 297.241 314.742 297.237V297.237Z" fill="white"/>
<path d="M256 144.218C254.165 144.218 252.405 143.489 251.108 142.191C249.81 140.894 249.081 139.134 249.081 137.299V66.2002C249.081 64.3652 249.81 62.6053 251.108 61.3078C252.405 60.0102 254.165 59.2812 256 59.2812C257.835 59.2812 259.595 60.0102 260.892 61.3078C262.19 62.6053 262.919 64.3652 262.919 66.2002V137.299C262.919 139.134 262.19 140.894 260.892 142.191C259.595 143.489 257.835 144.218 256 144.218Z" fill="white"/>
<path d="M256 73.1192C250.138 73.1192 244.407 71.3808 239.533 68.1239C234.658 64.8669 230.859 60.2377 228.616 54.8215C226.372 49.4054 225.785 43.4457 226.929 37.6959C228.073 31.9462 230.896 26.6648 235.041 22.5194C239.186 18.3741 244.468 15.5511 250.217 14.4074C255.967 13.2637 261.927 13.8507 267.343 16.0942C272.759 18.3376 277.388 22.1367 280.645 27.0111C283.902 31.8855 285.641 37.6162 285.641 43.4786C285.632 51.3369 282.506 58.8708 276.949 64.4275C271.392 69.9843 263.858 73.11 256 73.1192V73.1192ZM256 27.6757C252.875 27.6757 249.819 28.6026 247.22 30.339C244.622 32.0754 242.596 34.5435 241.4 37.4311C240.204 40.3187 239.891 43.4961 240.501 46.5615C241.111 49.627 242.616 52.4428 244.826 54.6528C247.036 56.8629 249.852 58.368 252.917 58.9777C255.982 59.5875 259.16 59.2745 262.048 58.0784C264.935 56.8824 267.403 54.8569 269.14 52.2581C270.876 49.6594 271.803 46.6041 271.803 43.4786C271.799 39.2885 270.133 35.2711 267.17 32.3083C264.207 29.3455 260.19 27.6794 256 27.6757V27.6757Z" fill="white"/>
<path d="M172.066 178.986C170.231 178.985 168.472 178.256 167.175 176.958L116.929 126.685C115.796 125.362 115.204 123.659 115.271 121.918C115.338 120.177 116.06 118.525 117.292 117.293C118.524 116.06 120.176 115.339 121.918 115.271C123.659 115.204 125.361 115.796 126.685 116.93L176.958 167.203C177.925 168.17 178.584 169.403 178.851 170.745C179.118 172.087 178.981 173.478 178.457 174.742C177.934 176.006 177.047 177.086 175.909 177.847C174.772 178.607 173.434 179.013 172.066 179.013V178.986Z" fill="white"/>
<path d="M105.721 135.348C99.8606 135.348 94.1317 133.61 89.2588 130.354C84.3858 127.098 80.5877 122.471 78.3445 117.057C76.1014 111.643 75.514 105.685 76.6566 99.9367C77.7992 94.1887 80.6204 88.9085 84.7637 84.7637C88.2091 81.3133 92.4525 78.7661 97.1178 77.3479C101.783 75.9298 106.726 75.6845 111.509 76.6338C116.292 77.5831 120.767 79.6977 124.537 82.7902C128.307 85.8826 131.255 89.8574 133.122 94.3621C134.988 98.8669 135.714 103.763 135.236 108.615C134.758 113.468 133.09 118.127 130.379 122.181C127.669 126.235 124.001 129.557 119.7 131.854C115.399 134.151 110.597 135.351 105.721 135.348V135.348ZM105.721 89.9252C103.646 89.9186 101.59 90.3244 99.673 91.119C97.756 91.9136 96.016 93.0812 94.554 94.554C91.5905 97.5176 89.9257 101.537 89.9257 105.728C89.9257 109.919 91.5905 113.939 94.554 116.902C96.3899 118.745 98.6523 120.106 101.14 120.865C103.629 121.623 106.266 121.756 108.817 121.251C111.369 120.746 113.757 119.619 115.768 117.97C117.78 116.32 119.353 114.2 120.349 111.797C121.344 109.394 121.731 106.782 121.475 104.193C121.219 101.605 120.328 99.1195 118.881 96.9579C117.434 94.7963 115.476 93.0253 113.18 91.8021C110.884 90.5789 108.322 89.9414 105.721 89.946V89.9252Z" fill="white"/>
<path d="M137.299 262.919H66.2002C64.3652 262.919 62.6053 262.19 61.3078 260.892C60.0102 259.595 59.2812 257.835 59.2812 256C59.2812 254.165 60.0102 252.405 61.3078 251.108C62.6053 249.81 64.3652 249.081 66.2002 249.081H137.299C139.134 249.081 140.894 249.81 142.191 251.108C143.489 252.405 144.218 254.165 144.218 256C144.218 257.835 143.489 259.595 142.191 260.892C140.894 262.19 139.134 262.919 137.299 262.919Z" fill="white"/>
<path d="M43.4786 285.641C37.6162 285.641 31.8855 283.902 27.0111 280.645C22.1367 277.388 18.3376 272.759 16.0942 267.343C13.8507 261.927 13.2637 255.967 14.4074 250.217C15.5511 244.468 18.3741 239.186 22.5194 235.041C26.6648 230.896 31.9462 228.073 37.6959 226.929C43.4457 225.785 49.4054 226.372 54.8215 228.616C60.2377 230.859 64.8669 234.658 68.1239 239.533C71.3808 244.407 73.1192 250.138 73.1192 256C73.11 263.858 69.9843 271.392 64.4275 276.949C58.8708 282.506 51.3369 285.632 43.4786 285.641V285.641ZM43.4786 240.197C40.3531 240.197 37.2977 241.124 34.699 242.86C32.1002 244.597 30.0747 247.065 28.8787 249.953C27.6826 252.84 27.3696 256.018 27.9794 259.083C28.5891 262.148 30.0942 264.964 32.3043 267.174C34.5143 269.384 37.3301 270.889 40.3956 271.499C43.461 272.109 46.6384 271.796 49.526 270.6C52.4136 269.404 54.8817 267.378 56.6181 264.78C58.3545 262.181 59.2814 259.126 59.2814 256C59.2777 251.81 57.6116 247.793 54.6488 244.83C51.686 241.867 47.6686 240.201 43.4786 240.197V240.197Z" fill="white"/>
<path d="M121.773 397.146C120.404 397.14 119.068 396.729 117.934 395.964C116.799 395.199 115.917 394.115 115.399 392.848C114.88 391.582 114.749 390.19 115.021 388.849C115.294 387.508 115.958 386.278 116.929 385.315L167.202 335.042C168.507 333.781 170.255 333.084 172.069 333.1C173.883 333.116 175.619 333.843 176.901 335.126C178.184 336.409 178.912 338.144 178.928 339.958C178.943 341.773 178.246 343.52 176.986 344.825L126.685 395.07C126.044 395.724 125.28 396.244 124.437 396.601C123.594 396.957 122.688 397.142 121.773 397.146V397.146Z" fill="white"/>
<path d="M105.721 435.892C101.827 435.903 97.9705 435.141 94.3733 433.652C90.776 432.163 87.5097 429.975 84.7633 427.216C79.9094 422.366 76.8874 415.983 76.2123 409.155C75.5372 402.327 77.2507 395.476 81.0609 389.77C84.8711 384.064 90.5422 379.855 97.1076 377.862C103.673 375.869 110.727 376.214 117.066 378.838C123.406 381.463 128.639 386.205 131.874 392.255C135.109 398.306 136.146 405.292 134.808 412.021C133.47 418.751 129.839 424.808 124.535 429.161C119.231 433.514 112.582 435.893 105.721 435.892V435.892ZM105.721 390.462C102.593 390.459 99.5346 391.385 96.9334 393.121C94.3321 394.858 92.305 397.328 91.109 400.218C89.913 403.108 89.6018 406.288 90.2151 409.355C90.8283 412.422 92.3382 415.238 94.5536 417.446C97.5624 420.323 101.565 421.928 105.728 421.928C109.89 421.928 113.893 420.323 116.902 417.446C119.121 415.239 120.635 412.421 121.249 409.352C121.864 406.282 121.552 403.099 120.354 400.207C119.156 397.315 117.125 394.845 114.519 393.11C111.914 391.375 108.851 390.453 105.721 390.462V390.462Z" fill="white"/>
<path d="M256 452.719C254.165 452.719 252.405 451.99 251.108 450.692C249.81 449.395 249.081 447.635 249.081 445.8V374.701C249.081 372.866 249.81 371.106 251.108 369.809C252.405 368.511 254.165 367.782 256 367.782C257.835 367.782 259.595 368.511 260.892 369.809C262.19 371.106 262.919 372.866 262.919 374.701V445.8C262.919 447.635 262.19 449.395 260.892 450.692C259.595 451.99 257.835 452.719 256 452.719Z" fill="white"/>
<path d="M256 498.162C250.138 498.162 244.407 496.424 239.533 493.167C234.658 489.91 230.859 485.281 228.616 479.865C226.372 474.448 225.785 468.489 226.929 462.739C228.073 456.989 230.896 451.708 235.041 447.562C239.186 443.417 244.468 440.594 250.217 439.45C255.967 438.307 261.927 438.894 267.343 441.137C272.759 443.381 277.388 447.18 280.645 452.054C283.902 456.928 285.641 462.659 285.641 468.522C285.632 476.38 282.506 483.914 276.949 489.47C271.392 495.027 263.858 498.153 256 498.162V498.162ZM256 452.719C252.875 452.719 249.819 453.646 247.22 455.382C244.622 457.118 242.596 459.586 241.4 462.474C240.204 465.362 239.891 468.539 240.501 471.604C241.111 474.67 242.616 477.486 244.826 479.696C247.036 481.906 249.852 483.411 252.917 484.021C255.982 484.63 259.16 484.317 262.048 483.121C264.935 481.925 267.403 479.9 269.14 477.301C270.876 474.702 271.803 471.647 271.803 468.522C271.797 464.332 270.131 460.316 267.168 457.353C264.206 454.391 260.19 452.724 256 452.719V452.719Z" fill="white"/>
<path d="M390.227 397.146C388.392 397.146 386.632 396.416 385.335 395.119L335.062 344.846C333.802 343.541 333.105 341.793 333.12 339.979C333.136 338.165 333.864 336.43 335.147 335.147C336.429 333.864 338.165 333.136 339.979 333.121C341.793 333.105 343.541 333.802 344.846 335.063L395.07 385.315C396.042 386.278 396.706 387.508 396.978 388.849C397.251 390.19 397.119 391.582 396.601 392.848C396.083 394.115 395.2 395.199 394.066 395.964C392.931 396.729 391.595 397.14 390.227 397.146V397.146Z" fill="white"/>
<path d="M406.279 435.892C399.427 435.889 392.787 433.511 387.492 429.162C382.197 424.813 378.573 418.763 377.238 412.042C375.904 405.321 376.94 398.345 380.172 392.303C383.403 386.261 388.63 381.526 394.961 378.905C401.292 376.284 408.336 375.939 414.893 377.929C421.45 379.919 427.114 384.12 430.92 389.818C434.727 395.515 436.44 402.357 435.768 409.176C435.096 415.995 432.081 422.37 427.236 427.216C424.49 429.975 421.223 432.163 417.626 433.652C414.029 435.141 410.172 435.903 406.279 435.892ZM406.279 390.462C403.148 390.453 400.086 391.374 397.48 393.11C394.875 394.845 392.844 397.315 391.645 400.207C390.447 403.099 390.135 406.282 390.75 409.352C391.365 412.421 392.878 415.239 395.098 417.446C398.107 420.323 402.109 421.928 406.272 421.928C410.435 421.928 414.437 420.323 417.446 417.446C419.665 415.239 421.178 412.423 421.793 409.355C422.408 406.287 422.097 403.105 420.901 400.214C419.704 397.322 417.675 394.852 415.072 393.115C412.469 391.379 409.408 390.456 406.279 390.462Z" fill="white"/>
<path d="M445.8 262.919H374.701C372.866 262.919 371.106 262.19 369.809 260.892C368.511 259.595 367.782 257.835 367.782 256C367.782 254.165 368.511 252.405 369.809 251.108C371.106 249.81 372.866 249.081 374.701 249.081H445.8C447.635 249.081 449.395 249.81 450.692 251.108C451.99 252.405 452.719 254.165 452.719 256C452.719 257.835 451.99 259.595 450.692 260.892C449.395 262.19 447.635 262.919 445.8 262.919Z" fill="white"/>
<path d="M468.522 285.641C462.659 285.641 456.928 283.902 452.054 280.645C447.18 277.388 443.381 272.759 441.137 267.343C438.894 261.927 438.307 255.967 439.45 250.217C440.594 244.468 443.417 239.186 447.562 235.041C451.708 230.896 456.989 228.073 462.739 226.929C468.489 225.785 474.448 226.372 479.865 228.616C485.281 230.859 489.91 234.658 493.167 239.533C496.424 244.407 498.162 250.138 498.162 256C498.153 263.858 495.027 271.392 489.47 276.949C483.914 282.506 476.38 285.632 468.522 285.641V285.641ZM468.522 240.197C465.396 240.197 462.341 241.124 459.742 242.86C457.143 244.597 455.118 247.065 453.922 249.953C452.726 252.84 452.413 256.018 453.022 259.083C453.632 262.148 455.137 264.964 457.347 267.174C459.557 269.384 462.373 270.889 465.439 271.499C468.504 272.109 471.681 271.796 474.569 270.6C477.457 269.404 479.925 267.378 481.661 264.78C483.397 262.181 484.324 259.126 484.324 256C484.319 251.811 482.652 247.794 479.69 244.832C476.727 241.869 472.711 240.203 468.522 240.197V240.197Z" fill="white"/>
<path d="M339.933 178.986C338.565 178.985 337.227 178.579 336.09 177.819C334.952 177.059 334.066 175.978 333.542 174.714C333.019 173.45 332.882 172.059 333.148 170.717C333.415 169.375 334.074 168.143 335.041 167.175L385.314 116.93C386.638 115.796 388.34 115.204 390.082 115.271C391.823 115.339 393.475 116.06 394.707 117.293C395.939 118.525 396.661 120.177 396.728 121.918C396.796 123.659 396.203 125.362 395.07 126.685L344.797 176.958C343.507 178.249 341.758 178.978 339.933 178.986V178.986Z" fill="white"/>
<path d="M406.279 135.348C401.405 135.348 396.607 134.146 392.309 131.849C388.011 129.551 384.346 126.229 381.638 122.177C378.931 118.125 377.264 113.467 376.787 108.617C376.31 103.767 377.036 98.8742 378.901 94.3718C380.767 89.8694 383.714 85.8965 387.481 82.8052C391.249 79.7138 395.721 77.5994 400.501 76.6492C405.281 75.6991 410.221 75.9425 414.885 77.3579C419.548 78.7733 423.791 81.3171 427.236 84.7638C431.383 88.9073 434.207 94.1877 435.352 99.9369C436.496 105.686 435.909 111.646 433.666 117.061C431.422 122.477 427.622 127.105 422.747 130.36C417.872 133.615 412.141 135.351 406.279 135.348V135.348ZM406.279 89.9253C402.622 89.9236 399.079 91.1899 396.251 93.5083C393.424 95.8267 391.488 99.0538 390.773 102.64C390.059 106.226 390.61 109.948 392.332 113.173C394.055 116.399 396.843 118.927 400.22 120.327C403.598 121.727 407.357 121.912 410.856 120.851C414.355 119.791 417.378 117.549 419.41 114.509C421.442 111.47 422.356 107.819 421.998 104.18C421.64 100.542 420.031 97.1396 417.446 94.5541C415.982 93.0851 414.241 91.9213 412.324 91.1303C410.407 90.3392 408.353 89.9367 406.279 89.9461V89.9253Z" fill="white"/>
</g>
<defs>
<clipPath id="clip0">
<rect width="512" height="512" fill="white"/>
</clipPath>
</defs>
</svg>
