<svg width="512" height="512" viewBox="0 0 512 512" fill="none" xmlns="http://www.w3.org/2000/svg">
<g clip-path="url(#clip0)">
<path d="M161.921 32.4209C166.066 32.4209 169.426 29.0609 169.426 24.9159V10.4349C169.426 6.28993 166.066 2.92993 161.921 2.92993C157.776 2.92993 154.416 6.28993 154.416 10.4349V24.9159C154.416 29.0599 157.776 32.4209 161.921 32.4209Z" fill="white"/>
<path d="M262.53 69.6981L272.769 59.4581C275.7 56.5271 275.7 51.7751 272.769 48.8451C269.838 45.9131 265.086 45.9141 262.156 48.8451L251.917 59.0851C248.986 62.0161 248.986 66.7681 251.917 69.6981C253.382 71.1641 255.303 71.8961 257.224 71.8961C259.144 71.8961 261.064 71.1631 262.53 69.6981V69.6981Z" fill="white"/>
<path d="M61.3123 249.688L51.0723 259.927C48.1413 262.858 48.1413 267.609 51.0723 270.54C52.5373 272.006 54.4583 272.738 56.3793 272.738C58.3003 272.738 60.2203 272.005 61.6863 270.54L71.9263 260.301C74.8573 257.37 74.8573 252.619 71.9263 249.688C68.9953 246.757 64.2433 246.757 61.3123 249.688Z" fill="white"/>
<path d="M311.178 167.198C315.323 167.198 318.683 163.838 318.683 159.693C318.683 155.548 315.323 152.188 311.178 152.188H296.698C292.553 152.188 289.193 155.548 289.193 159.693C289.193 163.838 292.553 167.198 296.698 167.198H311.178Z" fill="white"/>
<path d="M27.1442 152.188H12.6632C8.5182 152.188 5.1582 155.548 5.1582 159.693C5.1582 163.838 8.5182 167.198 12.6632 167.198H27.1442C31.2892 167.198 34.6492 163.838 34.6492 159.693C34.6492 155.548 31.2882 152.188 27.1442 152.188V152.188Z" fill="white"/>
<path d="M262.53 249.688C259.599 246.757 254.847 246.757 251.917 249.688C248.986 252.619 248.986 257.371 251.917 260.301L261.3 269.684C262.765 271.149 264.686 271.882 266.607 271.882C268.528 271.882 270.448 271.149 271.914 269.684C274.845 266.753 274.845 262.001 271.914 259.071L262.53 249.688Z" fill="white"/>
<path d="M61.3122 69.698C62.7772 71.163 64.6983 71.896 66.6193 71.896C68.5403 71.896 70.4603 71.163 71.9263 69.698C74.8573 66.767 74.8573 62.015 71.9263 59.085L61.6862 48.845C58.7552 45.914 54.0033 45.914 51.0733 48.845C48.1423 51.776 48.1423 56.528 51.0733 59.458L61.3122 69.698Z" fill="white"/>
<path d="M137.891 215.28C138.481 214.691 139.17 214.554 139.941 214.872C140.712 215.192 141.102 215.776 141.102 216.61C141.102 226.536 149.177 234.611 159.103 234.611H164.738C174.664 234.611 182.739 226.536 182.739 216.61C182.739 215.776 183.13 215.191 183.9 214.872C184.671 214.554 185.36 214.69 185.95 215.28C189.35 218.68 193.87 220.552 198.678 220.552C203.486 220.552 208.007 218.68 211.407 215.28L215.392 211.295C218.792 207.895 220.664 203.375 220.664 198.567C220.664 193.759 218.792 189.238 215.392 185.838C214.802 185.248 214.665 184.558 214.984 183.788C215.304 183.017 215.888 182.627 216.722 182.627C226.648 182.627 234.723 174.552 234.723 164.626V158.991C234.723 149.065 226.647 140.99 216.722 140.99C215.888 140.99 215.304 140.599 214.984 139.829C214.665 139.058 214.802 138.369 215.392 137.779C218.792 134.379 220.664 129.859 220.664 125.05C220.664 120.242 218.792 115.721 215.392 112.322L211.408 108.337C208.008 104.937 203.487 103.065 198.679 103.065C193.871 103.065 189.35 104.937 185.951 108.337C185.36 108.926 184.671 109.063 183.901 108.745C183.13 108.425 182.74 107.841 182.74 107.007C182.74 97.0811 174.665 89.0061 164.739 89.0061H159.104C149.178 89.0061 141.103 97.0811 141.103 107.007C141.103 107.841 140.712 108.426 139.942 108.745C139.171 109.064 138.482 108.926 137.892 108.337C134.492 104.937 129.971 103.065 125.164 103.065C120.356 103.065 115.835 104.937 112.435 108.338L108.451 112.322C105.051 115.722 103.179 120.243 103.179 125.051C103.179 129.859 105.051 134.38 108.451 137.78C109.041 138.37 109.178 139.06 108.858 139.83C108.539 140.601 107.954 140.991 107.12 140.991C97.1941 140.991 89.1191 149.066 89.1191 158.992V164.627C89.1191 174.553 97.1941 182.628 107.12 182.628C107.954 182.628 108.539 183.019 108.858 183.789C109.178 184.56 109.04 185.249 108.451 185.839C105.051 189.239 103.179 193.76 103.179 198.568C103.179 203.376 105.051 207.897 108.451 211.296L112.436 215.281C119.453 222.298 130.873 222.298 137.891 215.28V215.28ZM107.119 167.617C105.469 167.617 104.128 166.275 104.128 164.626V158.991C104.128 157.341 105.47 156 107.119 156C113.975 156 120.101 151.907 122.724 145.573C125.348 139.239 123.91 132.013 119.062 127.165C118.3 126.403 118.186 125.513 118.186 125.05C118.186 124.587 118.299 123.698 119.063 122.934L123.047 118.95C124.213 117.783 126.111 117.782 127.277 118.95C132.125 123.798 139.351 125.234 145.684 122.612C152.019 119.989 156.112 113.863 156.112 107.007C156.112 105.357 157.454 104.016 159.103 104.016H164.738C166.388 104.016 167.729 105.358 167.729 107.007C167.729 113.863 171.822 119.989 178.156 122.612C184.49 125.237 191.715 123.799 196.564 118.95C197.326 118.188 198.216 118.074 198.679 118.074C199.142 118.074 200.031 118.187 200.794 118.95L204.779 122.935C205.945 124.101 205.945 125.999 204.779 127.165C199.931 132.013 198.494 139.238 201.117 145.572C203.741 151.906 209.866 155.999 216.722 155.999C218.372 155.999 219.714 157.341 219.714 158.99V164.625C219.714 166.275 218.372 167.616 216.722 167.616C209.866 167.616 203.741 171.709 201.117 178.043C198.493 184.377 199.93 191.603 204.779 196.45C205.945 197.616 205.945 199.514 204.779 200.68L200.794 204.665C199.627 205.831 197.73 205.831 196.564 204.665C191.716 199.817 184.489 198.38 178.157 201.003C171.823 203.627 167.73 209.752 167.73 216.608C167.73 218.258 166.388 219.599 164.739 219.599H159.104C157.454 219.599 156.113 218.257 156.113 216.608C156.113 209.751 152.02 203.626 145.685 201.003C143.583 200.132 141.383 199.709 139.204 199.709C134.817 199.709 130.517 201.425 127.278 204.664C126.111 205.831 124.214 205.83 123.048 204.664L119.063 200.679C118.301 199.917 118.187 199.027 118.187 198.564C118.187 198.101 118.3 197.212 119.063 196.449C123.911 191.601 125.348 184.376 122.725 178.042C120.1 171.71 113.975 167.617 107.119 167.617V167.617Z" fill="white"/>
<path d="M161.921 187.861C176.286 187.861 187.974 176.174 187.974 161.808C187.974 147.442 176.287 135.755 161.921 135.755C147.556 135.755 135.868 147.442 135.868 161.808C135.868 176.174 147.555 187.861 161.921 187.861ZM161.921 150.765C168.01 150.765 172.964 155.719 172.964 161.808C172.964 167.897 168.01 172.851 161.921 172.851C155.832 172.851 150.878 167.897 150.878 161.808C150.878 155.719 155.832 150.765 161.921 150.765Z" fill="white"/>
<path d="M503.979 278.753L481.592 231.759C480.731 229.951 480.263 227.937 480.238 225.935L479.81 191.511C479.81 86.273 395.085 0.361 290.945 0.001C290.725 0 290.505 0 290.284 0C256.432 0 223.223 9.028 194.207 26.127C190.636 28.231 189.447 32.832 191.551 36.403C193.655 39.974 198.256 41.163 201.827 39.059C228.536 23.32 259.11 15.01 290.284 15.01C290.487 15.01 290.69 15.01 290.893 15.011C386.785 15.343 464.8 94.521 464.801 191.604L465.229 226.12C465.28 230.277 466.253 234.458 468.041 238.213L490.428 285.207C494.918 294.633 487.991 305.332 477.796 305.333C461.743 305.145 448.565 318.137 448.564 334.282L448.561 394.9C448.56 409.4 435.684 420.497 421.36 418.402L368.962 410.717C353.071 408.386 338.818 420.718 338.818 436.763V453.345L180.283 438.686V413.817C180.283 409.672 176.923 406.312 172.778 406.312C168.633 406.312 165.273 409.672 165.273 413.817V437.298L162.516 437.043C147.733 435.674 134.951 447.334 134.951 462.177V486.571C134.951 500.476 146.263 511.799 160.168 511.812L357.385 512H357.41C371.349 512 382.65 500.721 382.65 486.759V480.412C382.65 467.291 372.798 456.486 359.733 455.278L353.827 454.732V436.762C353.827 429.85 359.933 424.567 366.783 425.567L419.181 433.252C442.583 436.686 463.569 418.523 463.57 394.9L463.573 334.282C463.574 326.558 469.85 320.252 477.723 320.342C499.079 320.343 513.181 298.07 503.979 278.753V278.753ZM367.64 480.413V486.76C367.64 492.41 363.068 496.991 357.409 496.991C357.406 496.991 357.402 496.991 357.399 496.991L160.181 496.802C154.545 496.797 149.96 492.207 149.96 486.571V462.177C149.96 456.196 155.083 451.428 161.133 451.99L172.006 452.995C172.009 452.995 172.011 452.995 172.014 452.996L358.351 470.226C363.647 470.715 367.64 475.094 367.64 480.413V480.413Z" fill="white"/>
<path d="M147.13 386.236H178.82C198.589 386.236 214.891 371.124 216.788 351.846C222.769 349.182 226.955 343.192 226.955 336.234V300.003C226.955 294.091 223.937 288.873 219.362 285.802C224.99 266.266 234.771 247.846 247.902 232.197C309.772 158.469 255.75 46.6861 160.323 47.9531C66.2521 49.2641 15.7961 159.601 75.4841 231.649C88.7901 247.711 98.6981 266.339 104.394 285.86C99.8681 288.938 96.8881 294.128 96.8881 300.002V336.233C96.8881 344.019 102.126 350.592 109.259 352.648C111.524 371.54 127.638 386.236 147.13 386.236V386.236ZM113.98 338.317C112.831 338.317 111.897 337.383 111.897 336.234V300.003C111.897 298.854 112.831 297.92 113.98 297.92H209.847C209.872 297.922 209.897 297.925 209.922 297.926C211.041 297.96 211.943 298.876 211.943 300.003V336.234C211.943 337.383 211.008 338.317 209.86 338.317H113.98ZM178.82 371.226H147.13C136.172 371.226 126.975 363.569 124.592 353.326H201.358C198.975 363.569 189.778 371.226 178.82 371.226ZM160.532 62.9611C243.769 61.8631 289.487 159.289 236.404 222.549C221.647 240.134 210.725 260.898 204.579 282.91H119.164C112.957 260.974 101.932 240.048 87.0421 222.074C35.3241 159.645 79.1101 64.0971 160.532 62.9611Z" fill="white"/>
</g>
<defs>
<clipPath id="clip0">
<rect width="512" height="512" fill="white"/>
</clipPath>
</defs>
</svg>
