<svg width="496" height="496" viewBox="0 0 496 496" fill="none" xmlns="http://www.w3.org/2000/svg">
<path d="M272 240H256V224C256 219.582 252.418 216 248 216C243.582 216 240 219.582 240 224V240H224C219.582 240 216 243.582 216 248C216 252.418 219.582 256 224 256H240V272C240 276.418 243.582 280 248 280C252.418 280 256 276.418 256 272V256H272C276.418 256 280 252.418 280 248C280 243.582 276.418 240 272 240Z" fill="white"/>
<path d="M488 240H439.8C435.523 140.315 355.685 60.477 256 56.2V8C256 3.582 252.418 0 248 0C243.582 0 240 3.582 240 8V56.2C140.315 60.477 60.477 140.315 56.2 240H8C3.582 240 0 243.582 0 248C0 252.418 3.582 256 8 256H56.2C60.477 355.685 140.315 435.523 240 439.8V488C240 492.418 243.582 496 248 496C252.418 496 256 492.418 256 488V439.8C355.685 435.523 435.523 355.685 439.8 256H488C492.418 256 496 252.418 496 248C496 243.582 492.418 240 488 240ZM376 256H423.8C419.559 346.859 346.859 419.559 256 423.8V376C256 371.582 252.418 368 248 368C243.582 368 240 371.582 240 376V423.8C149.141 419.559 76.441 346.859 72.2 256H120C124.418 256 128 252.418 128 248C128 243.582 124.418 240 120 240H72.2C76.441 149.141 149.141 76.441 240 72.2V120C240 124.418 243.582 128 248 128C252.418 128 256 124.418 256 120V72.2C346.859 76.441 419.559 149.141 423.8 240H376C371.582 240 368 243.582 368 248C368 252.418 371.582 256 376 256Z" fill="white"/>
<path d="M248 160C199.399 160 160 199.399 160 248C160 296.601 199.399 336 248 336C296.601 336 336 296.601 336 248C335.943 199.423 296.577 160.057 248 160ZM248 320C208.236 320 176 287.764 176 248C176 208.235 208.236 176 248 176C287.765 176 320 208.235 320 248C319.956 287.746 287.746 319.956 248 320Z" fill="white"/>
</svg>
