<svg width="225" height="87" viewBox="0 0 225 87" fill="none" xmlns="http://www.w3.org/2000/svg">
<g clip-path="url(#clip0)">
<g filter="url(#filter0_d)">
<path d="M103.068 46.2493L107.123 48.7912L105.096 50.3137L122.335 59.449L138.557 50.3137H147.177L121.829 65.036L96.9868 50.3137L103.068 46.2493Z" fill="#FA7A05" fill-opacity="0.7"/>
<path d="M105.603 38.6366L109.661 41.1742L107.63 42.6967L122.336 50.8212L135.517 43.2042H144.132L121.829 55.8964L99.521 42.6967L105.603 38.6366Z" fill="#FA7A05"/>
<path d="M105.707 23.2056L121.317 38.8378C134.499 18.5286 157.457 4.37512 157.457 4.37512L122.331 47.7718L102.16 31.632L105.707 23.2056Z" fill="#0DAF00"/>
<path d="M1.58252 49.3468L4.72815 44.9848C6.95194 47.3605 10.4383 49.443 14.934 49.443C19.5782 49.443 21.4175 47.1636 21.4175 45.0329C21.4175 38.2515 2.60048 42.4647 2.60048 30.5469C2.60048 25.218 7.29272 21.1011 14.3573 21.1011C19.3903 21.1011 23.4534 22.698 26.4505 25.6074L23.2087 29.8207C20.6922 27.3006 17.2582 26.1368 13.8723 26.1368C10.5345 26.1368 8.40679 27.7337 8.40679 30.1575C8.40679 36.1646 27.1757 32.4326 27.1757 44.4991C27.1757 49.8761 23.401 54.4787 14.6937 54.4787C8.7432 54.4831 4.43543 52.4006 1.58252 49.3468Z" fill="#FA7A05"/>
<path d="M32.3965 41.161V21.5868H38.1067V40.9641C38.1067 46.1005 40.9596 49.4431 46.3814 49.4431C51.7509 49.4431 54.6038 46.1005 54.6038 40.9641V21.5868H60.314V41.1129C60.314 49.1543 55.7178 54.4832 46.3814 54.4832C36.9926 54.4832 32.3965 49.1062 32.3965 41.161Z" fill="#FA7A05"/>
<path d="M85.6146 53.9013L78.4539 41.8391H72.8399V53.9013H67.1777V21.5868H81.3505C87.7379 21.5868 91.8971 25.7519 91.8971 31.7108C91.8971 37.4772 88.1224 40.5747 84.2515 41.2048L92.1374 53.8969H85.6146V53.9013ZM86.0996 31.7108C86.0996 28.6088 83.7753 26.5744 80.586 26.5744H72.8442V36.8472H80.586C83.7753 36.8472 86.0996 34.8127 86.0996 31.7108Z" fill="#FA7A05"/>
<path d="M153.023 53.9013V21.5868H175.13V26.5788H158.681V34.9615H174.789V39.9535H158.681V48.9181H175.13V53.9101H153.023V53.9013Z" fill="#FA7A05"/>
<path d="M193.309 53.9013V40.4829L180.779 21.5868H187.262L196.166 35.4427L204.97 21.5868H211.449L198.967 40.4829V53.9013H193.309Z" fill="#FA7A05"/>
<path d="M165.149 75.1311H157.464L155.738 79.9254H153.243L160.248 61.5556H162.365L169.382 79.9254H166.9L165.149 75.1311ZM158.194 73.1378H164.431L161.306 64.546L158.194 73.1378ZM184.539 61.5556V74.0461C184.53 75.7786 183.984 77.1962 182.901 78.2978C181.826 79.3999 180.364 80.0181 178.517 80.1524L177.874 80.1778C175.866 80.1778 174.266 79.6353 173.074 78.5503C171.881 77.4652 171.276 75.9724 171.259 74.0715V61.5556H173.653V73.9958C173.653 75.3245 174.019 76.3592 174.749 77.0995C175.48 77.831 176.522 78.1972 177.874 78.1972C179.243 78.1972 180.289 77.831 181.011 77.0995C181.742 76.3675 182.107 75.3372 182.107 74.0085V61.5556H184.539ZM201.031 63.5493H195.134V79.9254H192.728V63.5493H186.844V61.5556H201.031V63.5493ZM217.51 71.3335C217.51 73.1334 217.207 74.7063 216.603 76.0521C215.998 77.3895 215.141 78.4116 214.032 79.1182C212.924 79.8247 211.63 80.1778 210.152 80.1778C208.707 80.1778 207.426 79.8247 206.309 79.1182C205.192 78.4033 204.323 77.3895 203.701 76.0774C203.088 74.757 202.773 73.2301 202.756 71.4976V70.1728C202.756 68.4066 203.063 66.8464 203.676 65.4923C204.289 64.1378 205.154 63.1035 206.271 62.3886C207.397 61.665 208.682 61.3036 210.127 61.3036C211.597 61.3036 212.89 61.661 214.007 62.3759C215.133 63.0825 215.998 64.1128 216.603 65.4669C217.207 66.8127 217.51 68.3812 217.51 70.1728V71.3335ZM215.103 70.1474C215.103 67.9691 214.666 66.2995 213.793 65.1388C212.919 63.9698 211.697 63.3853 210.127 63.3853C208.598 63.3853 207.393 63.9698 206.511 65.1388C205.638 66.2995 205.188 67.9144 205.163 69.9838V71.3335C205.163 73.445 205.604 75.1057 206.486 76.3172C207.376 77.5199 208.598 78.1215 210.152 78.1215C211.714 78.1215 212.924 77.5536 213.78 76.4183C214.637 75.2742 215.078 73.6383 215.103 71.5103V70.1474Z" fill="#737373"/>
</g>
</g>
<defs>
<filter id="filter0_d" x="-8.41748" y="-5.62488" width="235.927" height="95.8027" filterUnits="userSpaceOnUse" color-interpolation-filters="sRGB">
<feFlood flood-opacity="0" result="BackgroundImageFix"/>
<feColorMatrix in="SourceAlpha" type="matrix" values="0 0 0 0 0 0 0 0 0 0 0 0 0 0 0 0 0 0 127 0"/>
<feOffset/>
<feGaussianBlur stdDeviation="5"/>
<feColorMatrix type="matrix" values="0 0 0 0 0 0 0 0 0 0 0 0 0 0 0 0 0 0 0.1 0"/>
<feBlend mode="normal" in2="BackgroundImageFix" result="effect1_dropShadow"/>
<feBlend mode="normal" in="SourceGraphic" in2="effect1_dropShadow" result="shape"/>
</filter>
<clipPath id="clip0">
<rect width="225" height="86.1896" fill="white"/>
</clipPath>
</defs>
</svg>
